<?xml version="1.0" encoding="UTF-8"?>
<svg xmlns="http://www.w3.org/2000/svg" xmlns:xlink="http://www.w3.org/1999/xlink" width="125px" height="28px" viewBox="0 0 127 28" version="1.1">
<g id="surface1">
<path style=" stroke:none;fill-rule:nonzero;fill:rgb(0%,0%,0%);fill-opacity:1;" d="M 7.777344 27.707031 C 5.855469 27.707031 4.230469 27.167969 2.910156 26.089844 C 1.585938 25.015625 0.613281 23.574219 0 21.761719 L 3.945312 19.90625 L 4.3125 20.546875 C 4.929688 21.613281 5.523438 22.445312 6.085938 23.039062 C 6.644531 23.636719 7.34375 23.933594 8.191406 23.933594 C 8.746094 23.933594 9.238281 23.664062 9.667969 23.132812 C 10.101562 22.601562 10.320312 22.015625 10.320312 21.371094 C 10.320312 20.777344 10.167969 20.234375 9.867188 19.746094 C 9.578125 19.261719 9.199219 18.863281 8.730469 18.558594 L 4.578125 16.066406 C 3.367188 15.382812 2.402344 14.515625 1.683594 13.46875 C 0.96875 12.429688 0.609375 11.253906 0.609375 9.949219 C 0.609375 8.5625 0.933594 7.324219 1.574219 6.238281 C 2.21875 5.15625 3.09375 4.308594 4.207031 3.707031 C 5.316406 3.113281 6.566406 2.8125 7.960938 2.8125 C 9.59375 2.8125 10.984375 3.214844 12.128906 4.027344 C 13.269531 4.84375 14.113281 6.054688 14.667969 7.652344 L 10.730469 9.441406 C 10.652344 9.273438 10.46875 8.890625 10.183594 8.292969 C 9.910156 7.691406 9.585938 7.253906 9.191406 6.984375 C 8.796875 6.722656 8.316406 6.585938 7.753906 6.585938 C 7.042969 6.585938 6.507812 6.8125 6.136719 7.269531 C 5.769531 7.710938 5.582031 8.28125 5.582031 8.988281 C 5.582031 9.5 5.730469 9.96875 6.019531 10.386719 C 6.300781 10.804688 6.648438 11.125 7.050781 11.359375 L 10.890625 13.628906 C 13.726562 15.253906 15.21875 17.386719 15.375 20.027344 C 15.375 21.546875 15.035156 22.890625 14.367188 24.050781 C 13.695312 25.210938 12.789062 26.105469 11.644531 26.746094 C 10.488281 27.386719 9.199219 27.707031 7.777344 27.707031 Z M 23.8125 27.683594 C 21.695312 27.683594 20.078125 26.832031 18.957031 25.132812 C 17.839844 23.4375 17.277344 21.183594 17.277344 18.375 C 17.277344 15.511719 17.84375 13.234375 18.984375 11.550781 C 20.132812 9.867188 21.792969 9.027344 23.972656 9.027344 C 26.042969 9.027344 27.632812 9.867188 28.734375 11.550781 C 29.835938 13.234375 30.386719 15.511719 30.386719 18.375 C 30.386719 18.542969 30.355469 18.664062 30.296875 18.734375 C 30.222656 18.8125 30.1875 18.863281 30.1875 18.882812 L 21.722656 18.882812 C 21.722656 20.265625 21.898438 21.527344 22.25 22.664062 C 22.613281 23.8125 23.164062 24.386719 23.90625 24.386719 C 24.734375 24.386719 25.34375 23.910156 25.742188 22.949219 C 26.148438 21.984375 26.363281 21.480469 26.378906 21.441406 L 29.75 22.71875 C 29.304688 24.257812 28.59375 25.464844 27.621094 26.34375 C 26.648438 27.234375 25.378906 27.683594 23.8125 27.683594 Z M 21.722656 16.292969 L 26.011719 16.292969 C 26.011719 15.015625 25.835938 14 25.496094 13.253906 C 25.15625 12.507812 24.625 12.136719 23.90625 12.136719 C 23.542969 12.136719 23.199219 12.308594 22.859375 12.667969 C 22.523438 13.03125 22.25 13.53125 22.042969 14.175781 C 21.828125 14.816406 21.722656 15.519531 21.722656 16.292969 Z M 29.9375 3.039062 L 24.195312 7.90625 L 22.542969 6.308594 L 26.671875 0 Z M 41.371094 27.683594 C 40.183594 27.683594 39.308594 27.4375 38.734375 26.960938 C 38.160156 26.480469 37.761719 25.835938 37.53125 25.027344 L 36.449219 27.453125 L 33.085938 27.066406 L 33.085938 3.839844 L 37.53125 3.265625 L 37.53125 11.550781 C 38.058594 10.785156 38.726562 10.167969 39.527344 9.703125 C 40.332031 9.253906 41.175781 9.027344 42.070312 9.027344 C 43.441406 9.027344 44.523438 9.753906 45.308594 11.210938 C 46.097656 12.675781 46.488281 15.027344 46.488281 18.265625 C 46.488281 24.539062 44.78125 27.683594 41.371094 27.683594 Z M 39.710938 24.480469 C 40.695312 24.480469 41.324219 23.953125 41.605469 22.910156 C 41.894531 21.863281 42.042969 20.320312 42.042969 18.265625 C 42.042969 16.84375 41.980469 15.75 41.855469 14.984375 C 41.742188 14.230469 41.542969 13.6875 41.261719 13.359375 C 40.972656 13.03125 40.550781 12.867188 40.003906 12.867188 C 39.628906 12.867188 39.179688 13.003906 38.671875 13.277344 C 38.164062 13.558594 37.789062 13.820312 37.53125 14.078125 L 37.53125 19.773438 C 37.53125 21.480469 37.738281 22.695312 38.15625 23.410156 C 38.554688 24.121094 39.078125 24.480469 39.710938 24.480469 Z M 52.453125 27.683594 C 51.6875 27.683594 51 27.4375 50.386719 26.960938 C 49.773438 26.480469 49.296875 25.832031 48.960938 25.011719 C 48.617188 24.1875 48.445312 23.261719 48.445312 22.238281 C 48.445312 19.910156 49.230469 18.277344 50.816406 17.332031 C 52.390625 16.382812 54.234375 15.839844 56.332031 15.707031 C 56.332031 14.5625 56.257812 13.707031 56.101562 13.144531 C 55.953125 12.597656 55.59375 12.320312 55.023438 12.320312 C 54.535156 12.320312 54.164062 12.511719 53.910156 12.890625 C 53.652344 13.273438 53.492188 13.769531 53.433594 14.371094 L 49.078125 13.601562 C 49.292969 11.957031 49.960938 10.785156 51.09375 10.082031 C 52.207031 9.375 53.519531 9.027344 55.023438 9.027344 C 56.953125 9.027344 58.398438 9.535156 59.359375 10.558594 C 60.320312 11.582031 60.800781 12.917969 60.800781 14.5625 L 60.800781 23.867188 C 60.800781 24.871094 60.960938 25.9375 61.277344 27.066406 L 56.925781 27.453125 L 56.421875 25.253906 C 56.042969 25.925781 55.484375 26.503906 54.742188 26.972656 C 54 27.441406 53.242188 27.683594 52.453125 27.683594 Z M 54.515625 24.480469 C 54.878906 24.480469 55.179688 24.394531 55.417969 24.226562 C 55.660156 24.058594 55.96875 23.777344 56.332031 23.386719 L 56.332031 18.398438 C 55.269531 18.398438 54.425781 18.6875 53.792969 19.265625 C 53.15625 19.847656 52.839844 20.738281 52.839844 21.945312 C 52.839844 22.765625 52.976562 23.390625 53.261719 23.828125 C 53.542969 24.261719 53.960938 24.480469 54.515625 24.480469 Z M 69.824219 27.683594 C 68.058594 27.683594 66.640625 27.277344 65.5625 26.480469 C 64.488281 25.679688 63.792969 24.566406 63.476562 23.132812 L 66.929688 21.984375 C 67.011719 22.386719 67.171875 22.746094 67.402344 23.066406 C 67.886719 23.777344 68.601562 24.132812 69.53125 24.132812 C 70.0625 24.132812 70.570312 24.011719 71.054688 23.773438 C 71.535156 23.539062 71.78125 23.183594 71.78125 22.695312 C 71.78125 22.027344 71.328125 21.511719 70.421875 21.148438 L 66.675781 19.613281 C 65.679688 19.183594 64.914062 18.550781 64.386719 17.695312 C 63.855469 16.839844 63.59375 15.792969 63.59375 14.5625 C 63.59375 13.402344 63.878906 12.414062 64.4375 11.589844 C 64.992188 10.753906 65.738281 10.117188 66.660156 9.679688 C 67.578125 9.242188 68.566406 9.027344 69.625 9.027344 C 70.957031 9.027344 72.1875 9.410156 73.316406 10.1875 C 74.433594 10.96875 75.1875 12.03125 75.566406 13.375 L 71.890625 14.53125 C 71.800781 14.167969 71.652344 13.804688 71.4375 13.4375 C 70.972656 12.710938 70.378906 12.34375 69.667969 12.34375 C 69.136719 12.34375 68.679688 12.46875 68.289062 12.722656 C 67.910156 12.972656 67.722656 13.324219 67.722656 13.785156 C 67.722656 14.347656 68.242188 14.859375 69.28125 15.332031 L 72.453125 16.640625 C 73.574219 17.171875 74.453125 17.84375 75.089844 18.652344 C 75.722656 19.464844 76.042969 20.550781 76.042969 21.917969 C 76.042969 23.15625 75.742188 24.207031 75.152344 25.066406 C 74.5625 25.9375 73.792969 26.59375 72.839844 27.027344 C 71.890625 27.464844 70.882812 27.683594 69.824219 27.683594 Z M 84.90625 27.613281 C 83.457031 27.613281 82.242188 27.246094 81.253906 26.507812 C 80.257812 25.777344 79.757812 24.46875 79.757812 22.585938 L 79.757812 12.636719 L 77.285156 12.636719 L 77.46875 9.253906 L 79.875 9.253906 L 80.328125 5.34375 L 84.203125 4.796875 L 84.203125 9.253906 L 87.882812 9.253906 L 87.695312 12.636719 L 84.230469 12.636719 L 84.230469 22.5625 C 84.230469 23.203125 84.390625 23.660156 84.707031 23.933594 C 85.027344 24.207031 85.492188 24.347656 86.105469 24.347656 C 86.445312 24.347656 87.015625 24.285156 87.8125 24.160156 L 87.8125 27.265625 C 87.734375 27.285156 87.40625 27.347656 86.820312 27.453125 C 86.242188 27.558594 85.601562 27.613281 84.90625 27.613281 Z M 94.710938 6.746094 L 90.265625 6.945312 L 90.265625 2.308594 L 94.710938 1.988281 Z M 94.679688 27.066406 L 90.234375 27.453125 L 90.234375 9.625 L 94.679688 9.253906 Z M 104.273438 27.683594 C 102.15625 27.683594 100.535156 26.832031 99.402344 25.132812 C 98.285156 23.4375 97.726562 21.183594 97.726562 18.375 C 97.726562 15.511719 98.296875 13.234375 99.441406 11.550781 C 100.582031 9.867188 102.246094 9.027344 104.433594 9.027344 C 106.5 9.027344 108.089844 9.867188 109.195312 11.550781 C 110.285156 13.234375 110.832031 15.511719 110.832031 18.375 C 110.832031 18.542969 110.800781 18.664062 110.742188 18.734375 C 110.679688 18.8125 110.648438 18.863281 110.648438 18.882812 L 102.171875 18.882812 C 102.171875 20.265625 102.347656 21.527344 102.710938 22.664062 C 103.074219 23.8125 103.625 24.386719 104.363281 24.386719 C 105.1875 24.386719 105.796875 23.910156 106.203125 22.949219 C 106.609375 21.984375 106.820312 21.480469 106.839844 21.441406 L 110.199219 22.71875 C 109.753906 24.257812 109.050781 25.464844 108.082031 26.34375 C 107.101562 27.234375 105.832031 27.683594 104.273438 27.683594 Z M 102.171875 16.292969 L 106.457031 16.292969 C 106.457031 15.015625 106.289062 14 105.949219 13.253906 C 105.609375 12.507812 105.078125 12.136719 104.363281 12.136719 C 104 12.136719 103.652344 12.308594 103.320312 12.667969 C 102.972656 13.03125 102.695312 13.53125 102.488281 14.175781 C 102.273438 14.816406 102.171875 15.519531 102.171875 16.292969 Z M 113.53125 27.453125 L 113.53125 9.625 L 117.976562 9.253906 L 117.976562 11.550781 C 118.894531 10.738281 119.792969 10.117188 120.664062 9.679688 C 121.542969 9.242188 122.355469 9.027344 123.097656 9.027344 C 124.21875 9.027344 125.128906 9.4375 125.835938 10.25 C 126.546875 11.082031 126.90625 12.183594 126.90625 13.574219 L 126.90625 27.066406 L 122.460938 27.453125 L 122.460938 15.269531 C 122.460938 13.667969 121.921875 12.867188 120.832031 12.867188 C 120.480469 12.867188 120.085938 12.972656 119.644531 13.183594 C 119.210938 13.398438 118.65625 13.707031 117.976562 14.105469 L 117.976562 27.066406 Z M 113.53125 27.453125 "/>
</g>
</svg>
